<?xml version="1.0" encoding="utf-8"?>
<!-- Generator: Adobe Illustrator 16.0.0, SVG Export Plug-In . SVG Version: 6.00 Build 0)  -->
<!DOCTYPE svg PUBLIC "-//W3C//DTD SVG 1.1//EN" "http://www.w3.org/Graphics/SVG/1.1/DTD/svg11.dtd">
<svg version="1.1" id="Layer_1" xmlns="http://www.w3.org/2000/svg" xmlns:xlink="http://www.w3.org/1999/xlink" x="0px" y="0px"
	 width="612px" height="792px" viewBox="0 0 612 792" enable-background="new 0 0 612 792" xml:space="preserve">
<rect x="81" y="120" fill-rule="evenodd" clip-rule="evenodd" fill="#BFB0B0" width="501" height="563"/>
<path fill-rule="evenodd" clip-rule="evenodd" d="M281.596,569.086c3.864,7.617,14.506,11.837,24.406,8.577
	c18.871-6.213,25.72-14.266,26.121-32.39c0.335-15.107-3.307-29.6-6.113-43.156c-10.19,0.328-19.837,1.533-29.327,0.778
	c-30.078-2.393-61.32-31.561-66.658-61.295c-3.919-21.83,1.091-41.938,11.571-60.999c12.235-22.254,29.656-40.06,48.863-56.248
	c2.747-2.315,3.78-4.633,3.558-8.08c-0.89-13.787-2.019-27.577-2.303-41.382c-0.387-18.845,5.426-36.204,16.136-51.44
	c4.01-5.705,10.96-9.391,16.717-13.808c3.883-2.979,7.944-1.851,10.729,1.408c3.071,3.595,6.11,7.655,7.663,12.044
	c15.668,44.274,7.698,83.917-24.806,117.938c-5.002,5.236-5.84,9.691-4.641,16.109c1.983,10.613,3.258,21.359,4.866,32.292
	c0.976,0.185,1.932,0.592,2.839,0.503c13.974-1.371,25.531,4.811,36.86,11.712c7.963,4.852,11.874,12.466,13.692,21.184
	c2.944,14.114,2.17,28.146-2.13,41.921c-4.822,15.45-15.667,25.212-30.271,31.062c-3.852,1.543-4.715,3.519-4.17,7.446
	c2.059,14.831,4.068,29.683,5.517,44.582c1.123,11.549-3.442,21.268-12.102,28.797c-15.771,13.713-42.688,16.227-59.777,3.149
	c-8.638-6.612-13.015-15.165-11.499-26.026c1.643-11.765,8.438-19.784,19.678-23.563c10.074-3.388,21.23,5.251,22.961,17.168
	c0.996,6.853-1.106,12.182-7.066,15.729C289.364,565.21,285.611,566.978,281.596,569.086z M300.19,356.932
	c-14.718,11.473-29.504,21.082-40.077,35.268c-12.918,17.331-17.55,37.149-12.357,58.07c7.353,29.626,40.857,47.164,76.051,38.922
	c-3.92-21.573-7.919-43.136-11.675-64.741c-0.571-3.281-1.758-4.036-4.904-3.671c-17.99,2.091-26.478,19.49-16.708,34.634
	c3.287,5.095,6.867,9.999,10.559,15.349c-16.85-3.938-28.279-17.641-28.365-33.907c-0.097-18.272,6.972-32.214,24.684-39.453
	c3.198-1.308,6.276-2.905,9.565-4.441C304.743,381.15,302.579,369.635,300.19,356.932z M307.072,312.4
	c3.108-3.554,5.598-6.399,8.087-9.245c8.867-10.135,17.597-20.339,23.263-32.779c2.9-6.368,3.472-12.74,1.378-19.365
	c-3.986-12.608-9.684-14.052-19.659-5.16c-7.073,6.306-11.47,14.007-13.315,23.324C304.021,283.334,304.942,297.392,307.072,312.4z
	 M332.759,486.993c8.961-3.332,14.191-9.296,15.706-17.582c1.479-8.095,2.616-16.496,2.118-24.653
	c-0.908-14.863-13.937-25.544-27.276-23.386C326.442,443.146,329.579,464.924,332.759,486.993z"/>
</svg>
